# xmcd CD database file
# Generated: Wed Jul 2 08:49:41 2003 by KSCD
# 
# Track frame offsets:
#       150
#       19467
#       40109
#       54834
#       76431
#       97118
#       121709
#       140146
#       157561
#       187629
#       203686
#       219444
#       237447
#       254980
#
# Disc length: 3732 seconds
#
# Revision: 2
# Processed by: cddbd v1.4PL0 Copyright (c) Steve Scherf et al.
# Submitted via: Kscd 1.3.3
#
DISCID=b90e920e
DTITLE=multi Artist - SOUL BLUES HITS
DYEAR=1900
DGENRE=
TTITLE0=HOLE IN THE WALL - QUINN GOLDEN
TTITLE1=IS ANYBODY LONELY - MORRIS J.
TTITLE2=SHONT DONT DONT - BARBARA CARRIT'S FRIDAY - MORRIS J.
TTITLE3=LAST TWO DOLLARS - RICK LAWSON
TTITLE4=SLOW ROLL IT - SHEBA POTTS-WRIGHT
TTITLE5=SHE MADE A FREAK OUT OF ME - LEE SHOT WILLIAMS
TTITLE6=IT'S FRIDAY - MORRIS J.
TTITLE7=I'VE BEEN PARTYING AT THE HOLE IN THE WALL - BARBARA CARR
TTITLE8=SHO WASN'T ME - CHUCK ROBERSON
TTITLE9=BUMP AND GRIND - BILL CODAY
TTITLE10=STROKE IT - BARBARA CARR
TTITLE11=LIPSTICK ON HIS PANTS - SHEBA POTTS-WRIGHT
TTITLE12=BO HAWG GRIND - BILL CODAY
TTITLE13=BOOTY SCOOT - CHUCK ROBERSON
EXTD=ECKO RECORDS 2003
EXTT0=
EXTT1=
EXTT2=
EXTT3=
EXTT4=
EXTT5=
EXTT6=
EXTT7=
EXTT8=
EXTT9=
EXTT10=
EXTT11=
EXTT12=
EXTT13=
PLAYORDER=
